<svg version="1.1" id="Layer_1" xmlns="http://www.w3.org/2000/svg" x="0px" y="0px"
	 width="350px" height="350px" viewBox="0 0 350 350" enable-background="new 0 0 350 350" xml:space="preserve">
<g>
	<polygon fill="#8F69BF" points="261.725,170.304 261.725,223.799
		174.054,136.827 	"/>
	<polygon fill="#C18CFF" points="317.255,202.36 317.255,255.855 261.725,223.799 261.725,170.304 	"/>
	<polygon fill="#775499" points="317.255,255.855 269.944,283.169 269.936,283.169 174.054,338.532 174.054,274.419
		214.418,251.113 261.725,223.799 	"/>
	<polygon fill="#7000BF" points="174.054,274.419 174.054,338.532 86.38,223.799 	"/>
	<polygon fill="#8319C0" points="86.38,223.799 174.054,338.532 30.852,255.855 	"/>
	<polygon fill="#BC49F4" points="317.255,90.503 261.725,122.555 174.054,7.825 	"/>
	<polygon fill="#B544E2" points="174.054,7.825 261.725,122.555 174.054,71.938 	"/>
	<polygon fill="#9D25C1" points="174.054,7.825 174.054,71.938 132.708,95.81 86.38,122.555 30.852,90.503
		77.181,63.758 	"/>
	<polygon fill="#75128C" points="86.38,122.555 86.38,177.197 30.852,145.131 30.852,90.503 	"/>
	<polygon fill="#5E0D65" points="86.38,122.555 168.674,215.128 86.38,177.197 	"/>
</g>
</svg>
